<svg width="24" height="24" viewBox="0 0 24 24" fill="none" xmlns="http://www.w3.org/2000/svg">
<path opacity="0.2" d="M21 19C21 19.5523 20.5523 20 20 20H4C3.44772 20 3 19.5523 3 19V6C3 5.44772 3.44772 5 4 5H9.58579C9.851 5 10.1054 5.10536 10.2929 5.29289L11.7071 6.70711C11.8946 6.89464 12.149 7 12.4142 7H20C20.5523 7 21 7.44772 21 8V19Z" fill="#242424"/>
<path d="M21 18C21 18.5523 20.5523 19 20 19H4C3.44772 19 3 18.5523 3 18V5C3 4.44772 3.44772 4 4 4H10.5858C10.851 4 11.1054 4.10536 11.2929 4.29289L12.7071 5.70711C12.8946 5.89464 13.149 6 13.4142 6H20C20.5523 6 21 6.44772 21 7V18Z" fill="#B08B46"/>
<rect x="5" y="5" width="14" height="6" rx="1" fill="#FFE8BE"/>
<path d="M21 18C21 18.5523 20.5523 19 20 19H4C3.44772 19 3 18.5523 3 18V8C3 7.44772 3.44772 7 4 7H10.5858C10.851 7 11.1054 7.10536 11.2929 7.29289L11.7071 7.70711C11.8946 7.89464 12.149 8 12.4142 8H20C20.5523 8 21 8.44772 21 9V18Z" fill="#FFC968"/>
</svg>
