<svg width="24" height="24" viewBox="0 0 24 24" fill="none" xmlns="http://www.w3.org/2000/svg">
<path d="M4 3C4 2.44772 4.44772 2 5 2H13.5858C13.851 2 14.1054 2.10536 14.2929 2.29289L19.7071 7.70711C19.8946 7.89464 20 8.149 20 8.41421V21C20 21.5523 19.5523 22 19 22H5C4.44772 22 4 21.5523 4 21V3Z" fill="#D9D9D9"/>
<path d="M14 2.20001L20 8.20001H15C14.4477 8.20001 14 7.7523 14 7.20001V2.20001Z" fill="black" fill-opacity="0.266667"/>
<path d="M14 2L20 8H15C14.4477 8 14 7.55228 14 7V2Z" fill="white"/>
<rect x="6" y="11" width="12" height="1" fill="#444444"/>
<rect x="6" y="13" width="12" height="1" fill="#444444"/>
<rect x="6" y="15" width="12" height="1" fill="#444444"/>
<rect x="6" y="17" width="12" height="1" fill="#444444"/>
</svg>
