<svg width="274" height="274" viewBox="0 0 274 274" fill="none" xmlns="http://www.w3.org/2000/svg">
<path d="M137 201V62.3333M137 201C137.006 206.832 138.208 212.601 140.531 217.95C142.854 223.299 146.249 228.116 150.506 232.101C154.764 236.087 159.793 239.158 165.284 241.124C170.774 243.09 176.61 243.909 182.429 243.532C188.249 243.154 193.93 241.587 199.12 238.928C204.311 236.269 208.901 232.574 212.607 228.072C216.314 223.569 219.058 218.354 220.67 212.75C222.283 207.145 222.729 201.269 221.981 195.485M137 201C136.994 206.832 135.792 212.601 133.469 217.95C131.146 223.299 127.751 228.116 123.493 232.101C119.236 236.087 114.207 239.158 108.716 241.124C103.225 243.09 97.3899 243.909 91.5702 243.532C85.7505 243.154 80.0699 241.587 74.8794 238.928C69.6889 236.269 65.0987 232.574 61.3921 228.072C57.6856 223.569 54.9415 218.354 53.3292 212.75C51.717 207.145 51.2709 201.269 52.0184 195.485M137 62.3333C137 57.4248 138.129 52.582 140.299 48.1796C142.47 43.7772 145.625 39.9332 149.519 36.945C153.413 33.9568 157.942 31.9045 162.757 30.9468C167.571 29.9892 172.541 30.1519 177.282 31.4223C182.023 32.6928 186.409 35.0369 190.099 38.2734C193.79 41.5098 196.686 45.5519 198.564 50.0868C200.443 54.6218 201.252 59.528 200.931 64.4261C200.61 69.3241 199.166 74.0825 196.712 78.3333M137 62.3333C137 57.4248 135.871 52.582 133.7 48.1796C131.529 43.7772 128.375 39.9332 124.481 36.945C120.587 33.9568 116.057 31.9045 111.243 30.9468C106.429 29.9892 101.459 30.1519 96.7175 31.4223C91.9762 32.6928 87.5907 35.0369 83.9003 38.2734C80.21 41.5098 77.3136 45.5519 75.4353 50.0868C73.557 54.6218 72.7471 59.528 73.0684 64.4261C73.3896 69.3241 74.8333 74.0825 77.2878 78.3333M169 147.667C159.771 144.969 151.665 139.353 145.896 131.661C140.127 123.969 137.006 114.615 137 105C136.994 114.615 133.873 123.969 128.104 131.661C122.335 139.353 114.229 144.969 105 147.667M200.968 63.6667C207.238 65.2788 213.058 68.2965 217.989 72.4913C222.92 76.6861 226.832 81.948 229.428 87.8784C232.024 93.8088 233.237 100.252 232.974 106.721C232.712 113.189 230.98 119.513 227.912 125.213M201 201C210.392 201 219.521 197.9 226.972 192.183C234.424 186.465 239.78 178.448 242.211 169.376C244.642 160.304 244.011 150.684 240.417 142.007C236.823 133.329 230.467 126.08 222.333 121.384M72.9998 201C63.6077 201 54.4782 197.9 47.0271 192.183C39.576 186.465 34.2197 178.448 31.7888 169.376C29.358 160.304 29.9884 150.684 33.5823 142.007C37.1763 133.329 43.5329 126.08 51.6664 121.384M73.0318 63.6667C66.7619 65.2788 60.9411 68.2965 56.0102 72.4913C51.0793 76.6861 47.1677 81.948 44.5714 87.8784C41.9752 93.8088 40.7625 100.252 41.0252 106.721C41.288 113.189 43.0192 119.513 46.0878 125.213" stroke="#DDDDDD" stroke-width="55" stroke-linecap="round" stroke-linejoin="round"/>
<path d="M137 201V62.3333M137 201C137.006 206.832 138.208 212.601 140.531 217.95C142.854 223.299 146.249 228.116 150.506 232.101C154.764 236.087 159.793 239.158 165.284 241.124C170.774 243.09 176.61 243.909 182.429 243.532C188.249 243.154 193.93 241.587 199.12 238.928C204.311 236.269 208.901 232.574 212.607 228.072C216.314 223.569 219.058 218.354 220.67 212.75C222.283 207.145 222.729 201.269 221.981 195.485M137 201C136.994 206.832 135.792 212.601 133.469 217.95C131.146 223.299 127.751 228.116 123.493 232.101C119.236 236.087 114.207 239.158 108.716 241.124C103.225 243.09 97.3899 243.909 91.5702 243.532C85.7505 243.154 80.0699 241.587 74.8794 238.928C69.6889 236.269 65.0987 232.574 61.3921 228.072C57.6856 223.569 54.9415 218.354 53.3292 212.75C51.717 207.145 51.2709 201.269 52.0184 195.485M137 62.3333C137 57.4248 138.129 52.582 140.299 48.1796C142.47 43.7772 145.625 39.9332 149.519 36.945C153.413 33.9568 157.942 31.9045 162.757 30.9468C167.571 29.9892 172.541 30.1519 177.282 31.4223C182.023 32.6928 186.409 35.0369 190.099 38.2734C193.79 41.5098 196.686 45.5519 198.564 50.0868C200.443 54.6218 201.252 59.528 200.931 64.4261C200.61 69.3241 199.166 74.0825 196.712 78.3333M137 62.3333C137 57.4248 135.871 52.582 133.7 48.1796C131.529 43.7772 128.375 39.9332 124.481 36.945C120.587 33.9568 116.057 31.9045 111.243 30.9468C106.429 29.9892 101.459 30.1519 96.7175 31.4223C91.9762 32.6928 87.5907 35.0369 83.9003 38.2734C80.21 41.5098 77.3136 45.5519 75.4353 50.0868C73.557 54.6218 72.7471 59.528 73.0684 64.4261C73.3896 69.3241 74.8333 74.0825 77.2878 78.3333M169 147.667C159.771 144.969 151.665 139.353 145.896 131.661C140.127 123.969 137.006 114.615 137 105C136.994 114.615 133.873 123.969 128.104 131.661C122.335 139.353 114.229 144.969 105 147.667M200.968 63.6667C207.238 65.2788 213.058 68.2965 217.989 72.4913C222.92 76.6861 226.832 81.948 229.428 87.8784C232.024 93.8088 233.237 100.252 232.974 106.721C232.712 113.189 230.98 119.513 227.912 125.213M201 201C210.392 201 219.521 197.9 226.972 192.183C234.424 186.465 239.78 178.448 242.211 169.376C244.642 160.304 244.011 150.684 240.417 142.007C236.823 133.329 230.467 126.08 222.333 121.384M72.9998 201C63.6077 201 54.4782 197.9 47.0271 192.183C39.576 186.465 34.2197 178.448 31.7888 169.376C29.358 160.304 29.9884 150.684 33.5823 142.007C37.1763 133.329 43.5329 126.08 51.6664 121.384M73.0318 63.6667C66.7619 65.2788 60.9411 68.2965 56.0102 72.4913C51.0793 76.6861 47.1677 81.948 44.5714 87.8784C41.9752 93.8088 40.7625 100.252 41.0252 106.721C41.288 113.189 43.0192 119.513 46.0878 125.213" stroke="#242424" stroke-width="20" stroke-linecap="round" stroke-linejoin="round"/>
</svg>
